<mxfile host="app.diagrams.net" modified="2023-08-29T11:03:23.136Z" agent="Mozilla/5.0 (X11; Linux x86_64) AppleWebKit/537.36 (KHTML, like Gecko) Chrome/115.0.0.0 Safari/537.36" version="21.6.9" etag="1GmzL3btvVKq7ObcnFhD" type="github">
  <diagram name="Page-1" id="N3xzEY-c2SATE2JYSjKG">
    <mxGraphModel>
      <root>
        <mxCell id="0" />
        <mxCell id="1" parent="0" />
      </root>
    </mxGraphModel>
  </diagram>
</mxfile>
